<?xml version="1.0" encoding="utf-8"?>
<!-- Generator: Adobe Illustrator 16.0.0, SVG Export Plug-In . SVG Version: 6.00 Build 0)  -->
<!DOCTYPE svg PUBLIC "-//W3C//DTD SVG 1.1//EN" "http://www.w3.org/Graphics/SVG/1.1/DTD/svg11.dtd">
<svg version="1.1" id="Barrias_Obsoleta" xmlns="http://www.w3.org/2000/svg" xmlns:xlink="http://www.w3.org/1999/xlink" x="0px"
	 y="0px" width="166px" height="67px" viewBox="0 0 166 67" enable-background="new 0 0 166 67" xml:space="preserve">
<g>
	<rect x="8" y="22" fill="none" width="1" height="1"/>
	<rect x="11" y="9" fill="none" width="14" height="1"/>
	<path fill="none" d="M10,23h5v1h-4v1h14v-1h-4v-1h5V11H10V23z M17,15h2v1h-2V15z"/>
	<polygon fill="none" points="8,22 9,22 9,23 9,23 9,12 8,12 	"/>
	<polygon fill="none" points="8,24 8,24 9,24 9,23 9,24 	"/>
	<rect x="27" y="12" fill="none" width="1" height="10"/>
	<path fill="#27272E" d="M7,8v18h22V8H7z M11,9h14v1H11V9z M9,23v1H8v0h1L9,23H8v-1V12h1V23z M26,23h-5v1h4v1H11v-1h4v-1h-5V11h16
		V23z M28,22h-1V12h1V22z"/>
	<polygon fill="#27272E" points="9,24 9,23 9,23 	"/>
	<rect x="17" y="15" fill="#27272E" width="2" height="1"/>
	<rect x="5" y="16" fill="#27272E" width="1" height="2"/>
	<rect x="17" y="6" fill="#27272E" width="2" height="1"/>
	<rect x="17" y="27" fill="#27272E" width="2" height="1"/>
</g>
<g>
	<polygon fill="#27272E" points="47.293,15 45.879,16.414 50.293,21 60.707,10.414 59.293,9 50.293,18.172 	"/>
	<path fill="#27272E" d="M56,21v4c0,0.551-0.156,1-0.708,1H48h-2h-4V6h4h2h7.292C55.844,6,56,6.448,56,7v2.202l1-1.02V7
		c0-1.104-0.603-2-1.708-2H48h-2h-7v16v6v2h9.292h7C56.397,29,57,28.104,57,27v-2v-4v-4.263l-1,1.016V21z M40,6h1v20h-1v-5V6z
		 M55.292,28h-9H40v-1h6h2h7.292c0.266,0,0.501-0.054,0.708-0.148V27C56,27.552,55.844,28,55.292,28z"/>
</g>
<g>
	<path fill="#27272E" d="M74,6v22h18V6H74z M91,27H75V7l16,0V27z"/>
	<circle fill="#27272E" cx="77" cy="13" r="1"/>
	<circle fill="#27272E" cx="77" cy="21" r="1"/>
	<rect x="80" y="9" fill="#27272E" width="9" height="1"/>
	<rect x="80" y="12" fill="#27272E" width="9" height="1"/>
	<rect x="80" y="15" fill="#27272E" width="9" height="1"/>
	<rect x="80" y="18" fill="#27272E" width="9" height="1"/>
	<rect x="80" y="21" fill="#27272E" width="9" height="1"/>
	<rect x="80" y="24" fill="#27272E" width="9" height="1"/>
</g>
<g>
	<path fill="#CCCCCE" d="M114.271,16.148l-0.194-0.169L114,15.811c0.116-0.113,1.404-1.811,3.106-1.811
		c0.465,0,0.697,0.226,0.697,0.602c0,0.375-0.252,1.07-0.581,1.952l-1.083,2.854c-0.271,0.713-0.348,1.014-0.348,1.202
		c0,0.149,0.076,0.263,0.232,0.263c0.387-0.037,1.393-1.052,1.509-1.201l0.174-0.02l0.213,0.207l0.038,0.188
		c-0.116,0.15-1.471,1.953-3.579,1.953c-0.407,0-0.562-0.226-0.562-0.525c0-0.376,0.309-1.259,1.084-3.344l0.541-1.465
		c0.193-0.506,0.31-0.863,0.31-1.089c0-0.149-0.077-0.226-0.232-0.226c-0.31,0-0.746,0.496-1.017,0.797H114.271 M117,13
		c-0.553,0-1-0.447-1-1c0-0.552,0.447-1,1-1s1,0.448,1,1C118,12.553,117.553,13,117,13 M116,9c-4.418,0-8,3.582-8,8s3.582,8,8,8
		s8-3.582,8-8S120.418,9,116,9"/>
</g>
<path fill="#27272E" d="M156.854,23.439l-4.82-4.82c0.698-0.98,1.113-2.177,1.113-3.473c0-3.313-2.687-6-6-6s-6,2.687-6,6
	s2.687,6,6,6c1.295,0,2.492-0.415,3.473-1.113l4.82,4.82L156.854,23.439z M143.146,15.146c0-2.206,1.795-4,4-4s4,1.794,4,4
	s-1.795,4-4,4S143.146,17.352,143.146,15.146z"/>
<g>
	<g>
		<polygon fill-rule="evenodd" clip-rule="evenodd" fill="#5151E9" points="20,51.002 18,51.002 18,46 16,46 16,51.001 14,51.001 
			16,53 16,53 16,53 17,54 		"/>
	</g>
</g>
<path fill-rule="evenodd" clip-rule="evenodd" fill="#1AA669" d="M40,49h20v2H40V49z"/>
<polygon fill-rule="evenodd" clip-rule="evenodd" fill="#1AA669" points="93,49 84,49 84,40 82,40 82,49 73,49 73,51 82,51 82,60 
	84,60 84,51 93,51 "/>
<path fill="#55555D" d="M116,42.25c-2.762,0-5,2.137-5,5c0,1.433,0.833,2.5,1.667,4.167c0,0,2.384,4.114,3.062,5.655
	c0,0,0.075,0.178,0.271,0.178s0.271-0.178,0.271-0.178c0.679-1.541,3.062-5.655,3.062-5.655C120.167,49.75,121,48.683,121,47.25
	C121,44.387,118.762,42.25,116,42.25z M116,49.25c-1.104,0-2-0.896-2-2s0.896-2,2-2s2,0.896,2,2S117.104,49.25,116,49.25z"/>
<path fill="#27272E" d="M15,19.071c3.061,0.439,5.489,2.868,5.929,5.929H15V19.071 M14,18v8h8C21.999,21.582,18.417,18,14,18L14,18z
	"/>
<rect x="8" y="22" fill="#27272E" width="1" height="1"/>
</svg>
