<?xml version="1.0" encoding="utf-8"?>
<!-- Generator: Adobe Illustrator 16.0.0, SVG Export Plug-In . SVG Version: 6.00 Build 0)  -->
<!DOCTYPE svg PUBLIC "-//W3C//DTD SVG 1.1//EN" "http://www.w3.org/Graphics/SVG/1.1/DTD/svg11.dtd">
<svg version="1.1" id="Layer_2" xmlns="http://www.w3.org/2000/svg" xmlns:xlink="http://www.w3.org/1999/xlink" x="0px" y="0px"
	 width="67px" height="268px" viewBox="0 0 67 268" enable-background="new 0 0 67 268" xml:space="preserve">
<polygon fill="#FF6666" points="38.5,149 30.5,149 22.5,169 30.045,169 23.5,185 43.5,163 32.9,163 "/>
<path fill="#0BA05F" d="M29,83h1v6h-1v3h1v6h-1v3h1v6h-1v3h1v6h-1v3h20v-3h-1v-6h1v-3h-1v-6h1v-3h-1v-6h1v-3h-1v-6h1v-3H29V83z
	 M32,92h6v6h-6V92z M32,101h6v6h-6V101z M32,110h6v6h-6V110z M46,116h-6v-6h6V116z M46,107h-6v-6h6V107z M46,98h-6v-6h6V98z M46,83
	v6h-6v-6H46z M38,83v6h-6v-6H38z M28,116h-1v-6h1v-3h-1v-6h1v-3h-1v-6h1v-3H16v3h1v6h-1v3h1v6h-1v3h1v6h-1v3h12V116z M19,92h6v6h-6
	V92z M19,101h6v6h-6V101z M19,110h6v6h-6V110z"/>
<path fill="#5151E9" d="M49.68,36.575c0,0,0,1.637-1.638,1.637h-0.817h-0.086l-0.731,13.91h-4.909l-0.732-13.91H40.68h-0.818
	c-1.637,0-1.637-1.636-1.637-1.636l0.438-8.545c0.211-3.163,1.762-4.909,4.474-4.909h1.635c2.711,0,4.264,1.746,4.475,4.909
	L49.68,36.575z M46.409,18.576c0-0.677-0.274-1.291-0.72-1.735c-0.443-0.444-1.059-0.719-1.734-0.719
	c-0.678,0-1.292,0.274-1.736,0.719c-0.443,0.444-0.719,1.058-0.719,1.735v2.546h4.909V18.576z M22.682,21.122
	c0.444-0.444,0.818-1.868,0.818-2.546c0-0.677-0.275-1.291-0.719-1.735c-0.444-0.444-1.058-0.719-1.736-0.719
	c-0.677,0-1.291,0.274-1.735,0.719c-0.444,0.445-0.719,1.058-0.719,1.735c0,0.678,0.374,2.102,0.818,2.546H22.682z M34.137,36.122
	c0.443-0.444,0.818-1.141,0.818-1.818c0-0.678-0.275-1.292-0.721-1.736c-0.443-0.444-1.058-0.719-1.734-0.719
	s-1.291,0.275-1.735,0.719c-0.444,0.444-0.719,1.058-0.719,1.736c0,0.677,0.176,1.374,0.62,1.818H34.137z M23.5,23.123h-4.909
	c-1.807,0-3.272,1.465-3.272,3.272v10.18c0,0,0,1.637,2.455,1.638v13.909h6.544v-13.91c2.455,0,2.455-1.637,2.455-1.637v-10.18
	C26.773,24.588,25.308,23.123,23.5,23.123z M32.501,37.395c-1.807,0-3.272,1.466-3.272,3.272v3.272
	c-0.001,0-0.001,2.454,1.635,2.454v5.728l3.273,0.001v-5.729c1.637,0,1.637-2.454,1.637-2.454v-3.272
	C35.773,38.86,34.309,37.395,32.501,37.395z"/>
<g>
	<g>
		<path fill="#55555D" d="M30,228.5v2h11v-2H30z M30,235.5h11v-2H30V235.5z M30,240.5h11v-2H30V240.5z M26,230.5h2v-2h-2V230.5z
			 M26,235.5h2v-2h-2V235.5z M26,240.5h2v-2h-2V240.5z"/>
	</g>
</g>
</svg>
