<?xml version="1.0" encoding="utf-8"?>
<!-- Generator: Adobe Illustrator 16.0.0, SVG Export Plug-In . SVG Version: 6.00 Build 0)  -->
<!DOCTYPE svg PUBLIC "-//W3C//DTD SVG 1.1//EN" "http://www.w3.org/Graphics/SVG/1.1/DTD/svg11.dtd">
<svg version="1.1" id="Layer_1" xmlns="http://www.w3.org/2000/svg" xmlns:xlink="http://www.w3.org/1999/xlink" x="0px" y="0px"
	 width="16px" height="16px" viewBox="0 0 16 16" enable-background="new 0 0 16 16" xml:space="preserve">
<g>
	<path fill="#EFF6DF" d="M9.759,8c0,0.585-0.287,1.102-0.726,1.421l3.669,5.051C14.7,13.017,16,10.661,16,8H9.759z"/>
</g>
<g>
	<path fill="#80BD01" d="M3.216,4.524C4.292,3.045,6.031,2.081,8,2.081V0C5.34,0,2.984,1.301,1.529,3.299L3.216,4.524z"/>
	<path fill="#80BD01" d="M9.829,2.372c1.798,0.584,3.216,2.002,3.8,3.8l1.98-0.644c-0.789-2.43-2.708-4.348-5.137-5.137L9.829,2.372
		z"/>
	<path fill="#80BD01" d="M2.08,8c0-0.639,0.104-1.252,0.292-1.828l-1.98-0.644C0.139,6.307,0,7.137,0,8
		c0,1.758,0.568,3.382,1.529,4.702l1.687-1.227C2.505,10.499,2.08,9.301,2.08,8z"/>
	<path fill="#80BD01" d="M11.477,12.784l1.226,1.688C14.7,13.017,16,10.661,16,8h-2.08C13.92,9.969,12.955,11.708,11.477,12.784z"/>
	<path fill="#80BD01" d="M9.829,13.629C9.253,13.816,8.639,13.92,8,13.92c-1.3,0-2.499-0.424-3.476-1.136l-1.226,1.688
		C4.619,15.433,6.243,16,8,16c0.863,0,1.693-0.138,2.473-0.391L9.829,13.629z"/>
</g>
</svg>
