<?xml version="1.0" encoding="utf-8"?>
<!-- Generator: Adobe Illustrator 16.0.0, SVG Export Plug-In . SVG Version: 6.00 Build 0)  -->
<!DOCTYPE svg PUBLIC "-//W3C//DTD SVG 1.1//EN" "http://www.w3.org/Graphics/SVG/1.1/DTD/svg11.dtd">
<svg version="1.1" id="Layer_1" xmlns="http://www.w3.org/2000/svg" xmlns:xlink="http://www.w3.org/1999/xlink" x="0px" y="0px"
	 width="371.392px" height="48.822px" viewBox="0 0 371.392 48.822" enable-background="new 0 0 371.392 48.822"
	 xml:space="preserve">
<g>
	<path fill="#CCCCCE" d="M156.226,6.604c0.916-0.018,1.626-0.286,2.129-0.803s0.755-1.254,0.755-2.211
		c0-0.92-0.264-1.658-0.793-2.211s-1.255-0.831-2.181-0.831h-3.172V10.5h1.251V6.604H156.226z M154.216,1.62h1.928
		c0.533,0,0.953,0.181,1.258,0.541c0.305,0.361,0.458,0.84,0.458,1.438c0,0.621-0.148,1.098-0.444,1.431
		c-0.296,0.333-0.722,0.5-1.278,0.5h-1.921V1.62z"/>
	<path fill="#CCCCCE" d="M163.461,3.062c-0.127-0.063-0.287-0.096-0.479-0.096c-0.592,0-1.05,0.296-1.374,0.889l-0.021-0.752h-1.176
		V10.5h1.21V5.209c0.246-0.679,0.679-1.019,1.299-1.019c0.196,0,0.378,0.016,0.547,0.048L163.461,3.062z"/>
	<path fill="#CCCCCE" d="M164.142,7.267c0.018,1.035,0.286,1.855,0.803,2.461c0.517,0.606,1.204,0.909,2.061,0.909
		c0.866,0,1.559-0.312,2.079-0.937c0.52-0.624,0.779-1.472,0.779-2.543V6.378c-0.014-1.053-0.282-1.884-0.803-2.495
		c-0.522-0.61-1.211-0.916-2.068-0.916c-0.857,0-1.546,0.313-2.068,0.94c-0.522,0.626-0.783,1.478-0.783,2.553V7.267z
		 M165.352,6.453c0-0.752,0.149-1.348,0.448-1.788c0.298-0.44,0.696-0.66,1.193-0.66c0.505,0,0.909,0.22,1.209,0.66
		c0.301,0.44,0.452,1.038,0.452,1.794v0.834c-0.032,1.541-0.582,2.311-1.648,2.311c-0.505,0-0.908-0.218-1.206-0.653
		c-0.299-0.435-0.448-1.033-0.448-1.794V6.453z"/>
	<path fill="#CCCCCE" d="M171.836,3.104h-1.319l2.174,7.335l-0.239,0.827c-0.123,0.41-0.284,0.698-0.482,0.865
		s-0.473,0.25-0.824,0.25l-0.267-0.027v1.025c0.255,0.073,0.465,0.109,0.629,0.109c0.424,0,0.802-0.165,1.135-0.496
		c0.333-0.331,0.59-0.812,0.772-1.446l2.42-8.442h-1.285l-1.347,5.387L171.836,3.104z"/>
	<path fill="#CCCCCE" d="M181.827,9.529l-0.629-0.766c-0.237,0.292-0.491,0.505-0.762,0.639s-0.584,0.202-0.94,0.202
		c-0.561,0-0.99-0.18-1.289-0.54c-0.298-0.36-0.448-0.937-0.448-1.729V7.164h4.129V6.371c-0.009-1.167-0.228-2.025-0.656-2.577
		c-0.428-0.551-1.076-0.827-1.941-0.827c-0.861,0-1.532,0.313-2.013,0.94s-0.721,1.491-0.721,2.594v0.896
		c0.009,1.062,0.26,1.867,0.752,2.417s1.199,0.824,2.119,0.824C180.503,10.637,181.303,10.268,181.827,9.529L181.827,9.529z
		 M180.299,4.457c0.221,0.301,0.348,0.802,0.379,1.504v0.164h-2.912c0.032-0.725,0.168-1.259,0.41-1.603s0.613-0.516,1.114-0.516
		C179.742,4.006,180.078,4.156,180.299,4.457z"/>
	<path fill="#CCCCCE" d="M184.548,9.064c-0.258-0.36-0.387-0.975-0.387-1.846V6.275c0.009-0.807,0.144-1.387,0.403-1.74
		s0.659-0.53,1.196-0.53c0.415,0,0.74,0.137,0.975,0.41c0.234,0.273,0.365,0.684,0.393,1.23h1.142
		c-0.027-0.829-0.263-1.483-0.708-1.962c-0.443-0.479-1.044-0.718-1.801-0.718c-0.916,0-1.613,0.291-2.092,0.872
		s-0.718,1.43-0.718,2.546v0.813c0,1.14,0.241,1.997,0.722,2.574c0.48,0.577,1.179,0.865,2.095,0.865
		c0.688,0,1.271-0.233,1.747-0.701s0.728-1.056,0.755-1.767h-1.142c-0.022,0.46-0.154,0.814-0.396,1.063
		c-0.241,0.249-0.562,0.373-0.964,0.373C185.212,9.604,184.805,9.425,184.548,9.064z"/>
	<path fill="#CCCCCE" d="M189.907,1.312v1.791h-1.128v0.978h1.128v4.594c0,0.625,0.125,1.107,0.376,1.449s0.615,0.513,1.094,0.513
		c0.287,0,0.567-0.045,0.841-0.136l0.014-1.02c-0.164,0.055-0.326,0.082-0.485,0.082c-0.232,0-0.396-0.075-0.492-0.226
		c-0.096-0.151-0.144-0.372-0.144-0.664V4.081h1.114V3.104h-1.114V1.312H189.907z"/>
	<path fill="#CCCCCE" d="M193.13,7.267c0.019,1.035,0.287,1.855,0.804,2.461c0.517,0.606,1.204,0.909,2.062,0.909
		c0.865,0,1.559-0.312,2.078-0.937c0.52-0.624,0.779-1.472,0.779-2.543V6.378c-0.014-1.053-0.281-1.884-0.804-2.495
		c-0.522-0.61-1.211-0.916-2.067-0.916c-0.857,0-1.547,0.313-2.068,0.94s-0.783,1.478-0.783,2.553V7.267z M194.341,6.453
		c0-0.752,0.148-1.348,0.447-1.788s0.696-0.66,1.193-0.66c0.506,0,0.908,0.22,1.209,0.66s0.451,1.038,0.451,1.794v0.834
		c-0.031,1.541-0.58,2.311-1.646,2.311c-0.506,0-0.908-0.218-1.207-0.653s-0.447-1.033-0.447-1.794V6.453z"/>
	<path fill="#CCCCCE" d="M203.084,7.226c0.009,1.085,0.231,1.924,0.667,2.519c0.435,0.595,1.035,0.892,1.801,0.892
		c0.738,0,1.306-0.31,1.702-0.93l0.062,0.793h1.107V0h-1.21v3.828c-0.396-0.574-0.948-0.861-1.654-0.861
		c-0.798,0-1.409,0.299-1.836,0.896c-0.426,0.597-0.639,1.465-0.639,2.604V7.226z M204.294,6.416
		c0.004-0.806,0.13-1.403,0.376-1.792c0.246-0.39,0.647-0.584,1.203-0.584c0.583,0,1.03,0.296,1.34,0.888v3.728
		c-0.296,0.605-0.745,0.908-1.347,0.908c-0.557,0-0.957-0.194-1.203-0.583s-0.369-0.998-0.369-1.827V6.416z"/>
	<path fill="#CCCCCE" d="M215.187,9.529l-0.629-0.766c-0.236,0.292-0.49,0.505-0.762,0.639s-0.584,0.202-0.939,0.202
		c-0.561,0-0.99-0.18-1.289-0.54c-0.299-0.36-0.447-0.937-0.447-1.729V7.164h4.129V6.371c-0.01-1.167-0.229-2.025-0.656-2.577
		c-0.43-0.551-1.076-0.827-1.941-0.827c-0.861,0-1.533,0.313-2.014,0.94s-0.721,1.491-0.721,2.594v0.896
		c0.008,1.062,0.26,1.867,0.752,2.417s1.197,0.824,2.119,0.824C213.862,10.637,214.663,10.268,215.187,9.529L215.187,9.529z
		 M213.659,4.457c0.221,0.301,0.348,0.802,0.379,1.504v0.164h-2.912c0.032-0.725,0.169-1.259,0.41-1.603
		c0.242-0.344,0.613-0.516,1.115-0.516C213.103,4.006,213.438,4.156,213.659,4.457z"/>
	<path fill="#CCCCCE" d="M221.101,0.547h-1.252V10.5h1.252V0.547z"/>
	<path fill="#CCCCCE" d="M222.983,3.104V10.5h1.211V5.127c0.145-0.323,0.338-0.585,0.577-0.786c0.239-0.2,0.509-0.301,0.81-0.301
		c0.388,0,0.678,0.122,0.872,0.366c0.193,0.244,0.29,0.655,0.29,1.234v4.86h1.203V5.585c-0.018-1.745-0.682-2.618-1.988-2.618
		c-0.73,0-1.329,0.312-1.799,0.937l-0.033-0.8H222.983z"/>
	<path fill="#CCCCCE" d="M230.261,3.104h-1.23l2.222,7.396h0.902l2.194-7.396h-1.23l-1.401,5.558L230.261,3.104z"/>
	<path fill="#CCCCCE" d="M240.423,9.529l-0.629-0.766c-0.237,0.292-0.492,0.505-0.763,0.639s-0.585,0.202-0.94,0.202
		c-0.561,0-0.99-0.18-1.288-0.54c-0.298-0.36-0.448-0.937-0.448-1.729V7.164h4.129V6.371c-0.009-1.167-0.228-2.025-0.656-2.577
		c-0.428-0.551-1.075-0.827-1.941-0.827c-0.861,0-1.531,0.313-2.013,0.94s-0.722,1.491-0.722,2.594v0.896
		c0.01,1.062,0.26,1.867,0.752,2.417s1.199,0.824,2.119,0.824C239.099,10.637,239.898,10.268,240.423,9.529L240.423,9.529z
		 M238.895,4.457c0.222,0.301,0.348,0.802,0.38,1.504v0.164h-2.912c0.031-0.725,0.168-1.259,0.41-1.603
		c0.241-0.344,0.612-0.516,1.113-0.516C238.337,4.006,238.673,4.156,238.895,4.457z"/>
	<path fill="#CCCCCE" d="M245.075,9.334c-0.211,0.18-0.516,0.27-0.917,0.27c-0.429,0-0.761-0.116-0.998-0.349
		s-0.362-0.554-0.376-0.964h-1.217c0,0.679,0.239,1.24,0.718,1.682c0.479,0.442,1.103,0.663,1.873,0.663
		c0.743,0,1.335-0.193,1.777-0.579s0.663-0.9,0.663-1.544c0-0.516-0.162-0.941-0.485-1.277c-0.323-0.335-0.935-0.679-1.832-1.03
		c-0.565-0.245-0.921-0.443-1.069-0.593s-0.223-0.348-0.223-0.593c0-0.309,0.102-0.556,0.305-0.739
		c0.203-0.185,0.481-0.276,0.837-0.276c0.347,0,0.632,0.117,0.854,0.352c0.224,0.235,0.336,0.519,0.336,0.851h1.202
		c0-0.656-0.219-1.194-0.656-1.613c-0.438-0.419-1.017-0.629-1.736-0.629c-0.684,0-1.245,0.199-1.685,0.598s-0.66,0.899-0.66,1.5
		c0,0.337,0.066,0.628,0.198,0.872s0.332,0.461,0.599,0.653s0.726,0.422,1.377,0.69c0.561,0.251,0.939,0.47,1.135,0.656
		c0.196,0.187,0.294,0.41,0.294,0.67C245.389,8.912,245.284,9.154,245.075,9.334z"/>
	<path fill="#CCCCCE" d="M248.414,1.312v1.791h-1.128v0.978h1.128v4.594c0,0.625,0.125,1.107,0.376,1.449
		c0.25,0.342,0.615,0.513,1.094,0.513c0.287,0,0.567-0.045,0.841-0.136l0.014-1.02c-0.164,0.055-0.326,0.082-0.485,0.082
		c-0.232,0-0.396-0.075-0.492-0.226c-0.096-0.151-0.144-0.372-0.144-0.664V4.081h1.114V3.104h-1.114V1.312H248.414z"/>
	<path fill="#CCCCCE" d="M253.333,3.104h-1.211V10.5h1.211V3.104z M253.254,0.625c-0.116-0.144-0.288-0.215-0.517-0.215
		c-0.228,0-0.398,0.071-0.512,0.212c-0.114,0.142-0.172,0.314-0.172,0.52s0.058,0.376,0.172,0.513
		c0.113,0.137,0.284,0.205,0.512,0.205c0.232,0,0.406-0.068,0.52-0.205c0.114-0.137,0.172-0.308,0.172-0.513
		C253.429,0.941,253.37,0.769,253.254,0.625z"/>
	<path fill="#CCCCCE" d="M254.854,7.287c0.019,1.08,0.241,1.908,0.67,2.485s1.025,0.865,1.791,0.865c0.72,0,1.276-0.289,1.668-0.868
		v0.964c-0.027,1.098-0.544,1.647-1.552,1.647c-0.605,0-1.16-0.246-1.661-0.738l-0.492,0.834c0.228,0.264,0.569,0.486,1.022,0.667
		s0.862,0.27,1.227,0.27c0.839,0,1.492-0.245,1.962-0.735s0.704-1.193,0.704-2.109V3.104h-1.094l-0.062,0.827
		c-0.392-0.643-0.964-0.964-1.716-0.964c-0.807,0-1.42,0.295-1.839,0.885s-0.629,1.462-0.629,2.615V7.287z M256.063,6.416
		c0.004-0.806,0.13-1.403,0.376-1.792c0.246-0.39,0.647-0.584,1.203-0.584c0.579,0,1.025,0.303,1.34,0.908v3.693
		c-0.301,0.615-0.752,0.922-1.354,0.922c-0.556,0-0.956-0.194-1.2-0.583c-0.243-0.389-0.365-0.998-0.365-1.827V6.416z"/>
	<path fill="#CCCCCE" d="M266.916,10.5v-0.109c-0.15-0.419-0.228-0.914-0.232-1.483V5.175c-0.009-0.72-0.211-1.268-0.604-1.644
		c-0.395-0.376-0.971-0.564-1.727-0.564c-0.465,0-0.887,0.098-1.265,0.294c-0.378,0.196-0.679,0.466-0.902,0.81
		s-0.335,0.706-0.335,1.083h1.21c0-0.333,0.114-0.607,0.342-0.824s0.524-0.325,0.889-0.325c0.401,0,0.699,0.094,0.896,0.28
		c0.195,0.187,0.294,0.501,0.294,0.943v0.786h-0.889c-0.889,0.009-1.589,0.235-2.099,0.677c-0.511,0.442-0.766,1.039-0.766,1.791
		c0,0.684,0.188,1.213,0.564,1.589c0.375,0.376,0.898,0.564,1.568,0.564c0.665,0,1.212-0.314,1.641-0.943
		c0.031,0.378,0.084,0.647,0.157,0.807H266.916z M263.19,9.252c-0.169-0.189-0.253-0.493-0.253-0.913
		c0-0.446,0.166-0.794,0.499-1.042c0.332-0.249,0.786-0.377,1.36-0.386h0.684v1.764c-0.123,0.246-0.319,0.451-0.588,0.615
		s-0.552,0.246-0.848,0.246C263.644,9.536,263.358,9.441,263.19,9.252z"/>
	<path fill="#CCCCCE" d="M269.767,9.064c-0.258-0.36-0.387-0.975-0.387-1.846V6.275c0.01-0.807,0.145-1.387,0.404-1.74
		s0.658-0.53,1.195-0.53c0.415,0,0.74,0.137,0.975,0.41s0.365,0.684,0.393,1.23h1.143c-0.027-0.829-0.264-1.483-0.708-1.962
		s-1.045-0.718-1.802-0.718c-0.916,0-1.613,0.291-2.092,0.872s-0.717,1.43-0.717,2.546v0.813c0,1.14,0.24,1.997,0.721,2.574
		s1.18,0.865,2.096,0.865c0.688,0,1.27-0.233,1.746-0.701s0.729-1.056,0.756-1.767h-1.143c-0.022,0.46-0.154,0.814-0.396,1.063
		c-0.241,0.249-0.562,0.373-0.963,0.373C270.431,9.604,270.024,9.425,269.767,9.064z"/>
	<path fill="#CCCCCE" d="M276.049,3.104h-1.21V10.5h1.21V3.104z M275.97,0.625c-0.115-0.144-0.287-0.215-0.516-0.215
		s-0.398,0.071-0.513,0.212c-0.114,0.142-0.171,0.314-0.171,0.52s0.057,0.376,0.171,0.513s0.284,0.205,0.513,0.205
		c0.232,0,0.406-0.068,0.52-0.205s0.171-0.308,0.171-0.513C276.145,0.941,276.087,0.769,275.97,0.625z"/>
	<path fill="#CCCCCE" d="M277.557,7.267c0.019,1.035,0.286,1.855,0.803,2.461c0.518,0.606,1.204,0.909,2.062,0.909
		c0.865,0,1.559-0.312,2.078-0.937c0.52-0.624,0.779-1.472,0.779-2.543V6.378c-0.014-1.053-0.281-1.884-0.804-2.495
		c-0.521-0.61-1.211-0.916-2.067-0.916c-0.857,0-1.547,0.313-2.068,0.94s-0.782,1.478-0.782,2.553V7.267z M278.767,6.453
		c0-0.752,0.148-1.348,0.447-1.788s0.696-0.66,1.193-0.66c0.506,0,0.908,0.22,1.209,0.66s0.451,1.038,0.451,1.794v0.834
		c-0.031,1.541-0.58,2.311-1.646,2.311c-0.506,0-0.908-0.218-1.207-0.653s-0.447-1.033-0.447-1.794V6.453z M279.655,2.02
		l1.019,0.003l1.831-2.01h-1.531L279.655,2.02z"/>
	<path fill="#CCCCCE" d="M284.696,3.104V10.5h1.211V5.127c0.145-0.323,0.338-0.585,0.577-0.786c0.239-0.2,0.509-0.301,0.81-0.301
		c0.388,0,0.678,0.122,0.872,0.366c0.193,0.244,0.29,0.655,0.29,1.234v4.86h1.203V5.585c-0.018-1.745-0.682-2.618-1.988-2.618
		c-0.73,0-1.329,0.312-1.799,0.937l-0.033-0.8H284.696z"/>
	<path fill="#FFFFFF" d="M0,48.55h16.91v-1.336c-2.602-0.28-4.277-0.808-5.027-1.581c-1.148-1.193-1.723-3.758-1.723-7.693V9.24
		l18.123,39.31h0.984L47.707,7.554v32.318c0,3.045-0.357,4.972-1.072,5.778c-0.715,0.809-2.525,1.33-5.432,1.563v1.336h20.145
		v-1.336c-2.672-0.233-4.395-0.72-5.168-1.457s-1.16-2.418-1.16-5.042V8.713c0-2.553,0.387-4.221,1.16-5.006
		c0.773-0.784,2.496-1.27,5.168-1.458V0.913h-14.31L30.906,36.777L14.371,0.913H0.176v1.336c2.906,0.141,4.77,0.604,5.59,1.388
		c0.82,0.785,1.23,2.477,1.23,5.076v29.227c0,3.795-0.422,6.213-1.266,7.255S2.977,46.91,0,47.214V48.55z"/>
	<path fill="#FFFFFF" d="M81.741,45.948c-2.555,0-4.184-0.181-4.887-0.545c-0.703-0.362-1.055-1.165-1.055-2.408V25.066
		c0.609,0.023,1.06,0.034,1.354,0.034c0.293,0,0.99,0,2.092,0c4.5,0,8.203,0.738,11.109,2.215c2.906,1.477,4.359,4.231,4.359,8.262
		c0,4.056-1.243,6.798-3.727,8.227C88.503,45.234,85.42,45.948,81.741,45.948L81.741,45.948z M61.597,48.55h23.465
		c4.004,0,7.376-0.55,10.116-1.651c5.199-2.107,7.798-5.971,7.798-11.592c0-3.348-1.172-5.953-3.516-7.815
		c-2.344-1.862-5.168-3.191-8.473-3.987c2.672-0.657,4.676-1.49,6.012-2.498c2.367-1.759,3.551-4.34,3.551-7.742
		c0-4.528-1.692-7.717-5.076-9.571s-7.956-2.78-13.716-2.78H61.597v1.336c2.892,0.141,4.763,0.592,5.614,1.354
		c0.851,0.762,1.276,2.467,1.276,5.115v32.027c0,2.681-0.426,4.389-1.276,5.122c-0.852,0.734-2.723,1.184-5.614,1.347V48.55z
		 M82.655,22.253L75.8,22.358V6.086c0-1.15,0.176-1.854,0.527-2.113s1.277-0.388,2.777-0.388c3.96,0,6.914,0.411,8.859,1.233
		c3.516,1.503,5.273,4.403,5.273,8.7c0,3.64-1.524,6.165-4.57,7.573C87.073,21.819,85.069,22.207,82.655,22.253L82.655,22.253z"/>
	<path fill="#FFFFFF" d="M133.743,13.991c0,4.688-1.723,7.887-5.168,9.598c-1.898,0.938-4.5,1.406-7.805,1.406
		c-0.375,0-0.762-0.011-1.16-0.035c-0.399-0.023-1.243-0.093-2.531-0.211V5.976c0-1.007,0.169-1.658,0.51-1.951
		c0.339-0.292,1.248-0.439,2.725-0.439c3.117,0,5.695,0.446,7.734,1.336C131.845,6.562,133.743,9.585,133.743,13.991L133.743,13.991
		z M103.755,48.55h20.145v-1.336c-2.883-0.21-4.741-0.664-5.572-1.363c-0.833-0.699-1.248-2.401-1.248-5.105V27.667
		c0.585,0,1.482,0.018,2.689,0.053c1.207,0.035,2.197,0.053,2.971,0.053c5.39,0,9.879-1.101,13.465-3.305
		c3.586-2.203,5.379-5.753,5.379-10.652c0-3.867-1.617-6.984-4.852-9.352c-3.234-2.367-7.899-3.551-13.992-3.551h-18.984v1.336
		c2.578,0.211,4.248,0.715,5.01,1.512c0.761,0.797,1.143,2.45,1.143,4.957v31.184c0,2.963-0.34,4.858-1.02,5.686
		c-0.68,0.829-2.391,1.37-5.133,1.627V48.55z"/>
	<path fill="#FFFFFF" d="M153.834,19.292h-0.961v11.375h0.961V19.292z"/>
	<path fill="#FFFFFF" d="M165.229,19.292h-0.953v9.742l-6.547-9.742h-0.969v11.375h0.969v-9.734l6.539,9.734h0.961V19.292z"/>
	<path fill="#FFFFFF" d="M175.452,19.292h-8.75v0.812h3.891v10.562h0.961V20.104h3.898V19.292z"/>
	<path fill="#FFFFFF" d="M183.409,24.401h-5.32v-4.296h6.078v-0.812h-7.039v11.375h7.078v-0.812h-6.117v-4.641h5.32V24.401z"/>
	<path fill="#FFFFFF" d="M193.069,30.667h1.023v-0.103l-2.844-4.843c0.719-0.213,1.291-0.599,1.719-1.155
		c0.427-0.557,0.641-1.199,0.641-1.928c0-1.056-0.342-1.877-1.023-2.465c-0.683-0.588-1.631-0.882-2.844-0.882h-3.695v11.375h0.969
		v-4.742h3.305L193.069,30.667z M187.015,20.104h2.711c0.922,0,1.638,0.222,2.148,0.665c0.51,0.443,0.766,1.066,0.766,1.87
		c0,0.73-0.245,1.325-0.734,1.784c-0.49,0.459-1.139,0.689-1.945,0.689h-2.945V20.104z"/>
	<path fill="#FFFFFF" d="M195.769,19.292h-1.047l4.234,11.375h0.922l4.234-11.375h-1.055l-3.578,9.968l-0.07,0.243l-0.062-0.243
		L195.769,19.292z"/>
	<path fill="#FFFFFF" d="M211.905,24.401h-5.32v-4.296h6.078v-0.812h-7.039v11.375h7.078v-0.812h-6.117v-4.641h5.32V24.401z"/>
	<path fill="#FFFFFF" d="M223.034,19.292h-0.953v9.742l-6.547-9.742h-0.969v11.375h0.969v-9.734l6.539,9.734h0.961V19.292z"/>
	<path fill="#FFFFFF" d="M232.851,27.12c-0.119,0.964-0.435,1.687-0.945,2.168c-0.51,0.481-1.268,0.722-2.273,0.722
		c-1.016,0-1.821-0.391-2.418-1.172c-0.596-0.782-0.895-1.83-0.895-3.144v-1.392c0-1.36,0.307-2.426,0.918-3.198
		c0.612-0.771,1.434-1.157,2.465-1.157c1.859,0,2.91,0.966,3.148,2.899h0.969c-0.114-1.162-0.523-2.071-1.23-2.727
		c-0.705-0.657-1.668-0.985-2.887-0.985c-0.864,0-1.629,0.212-2.293,0.637c-0.664,0.425-1.172,1.028-1.527,1.809
		c-0.354,0.782-0.531,1.677-0.531,2.688v1.477c0.006,0.995,0.186,1.879,0.539,2.651c0.354,0.774,0.855,1.371,1.504,1.794
		c0.648,0.422,1.395,0.632,2.238,0.632c1.209,0,2.176-0.316,2.902-0.952s1.155-1.552,1.285-2.75H232.851z"/>
	<path fill="#FFFFFF" d="M237.167,19.292h-0.96v11.375h0.96V19.292z"/>
	<path fill="#FFFFFF" d="M248.5,24.237c-0.016-1.016-0.206-1.909-0.57-2.68c-0.364-0.771-0.882-1.367-1.551-1.79
		c-0.669-0.421-1.441-0.633-2.316-0.633s-1.648,0.215-2.32,0.645c-0.672,0.43-1.191,1.044-1.559,1.844
		c-0.367,0.799-0.551,1.717-0.551,2.754v1.172c0,1.614,0.409,2.897,1.227,3.847c0.817,0.951,1.891,1.426,3.219,1.426
		c0.88,0,1.656-0.213,2.328-0.64s1.188-1.036,1.551-1.828s0.543-1.712,0.543-2.758V24.237z M247.539,25.565
		c0,1.39-0.305,2.476-0.914,3.253c-0.609,0.779-1.458,1.169-2.547,1.169c-1.073,0-1.922-0.396-2.547-1.184
		c-0.625-0.79-0.938-1.858-0.938-3.207v-1.188c0-1.396,0.313-2.483,0.941-3.262c0.628-0.778,1.47-1.167,2.527-1.167
		c1.078,0,1.927,0.388,2.547,1.164c0.62,0.776,0.93,1.849,0.93,3.219V25.565z M243.5,18.381l0.82,0.004l1.805-2.18h-1.133
		L243.5,18.381z"/>
	<path fill="#FFFFFF" d="M259.23,19.292h-0.953v9.742l-6.547-9.742h-0.969v11.375h0.969v-9.734l6.539,9.734h0.961V19.292z"/>
	<path fill="#FFFFFF" d="M272.293,24.401h-5.32v-4.296h6.078v-0.812h-7.039v11.375h7.078v-0.812h-6.117v-4.641h5.32V24.401z"/>
	<path fill="#FFFFFF" d="M283.422,19.292h-0.953v9.742l-6.547-9.742h-0.968v11.375h0.968v-9.734l6.539,9.734h0.961V19.292z"/>
	<path fill="#FFFFFF" d="M293.688,30.667c1.156,0,2.059-0.282,2.707-0.848c0.648-0.564,0.973-1.35,0.973-2.354
		c0-0.66-0.202-1.244-0.605-1.749c-0.404-0.505-0.937-0.831-1.598-0.976c0.557-0.188,0.996-0.499,1.316-0.934s0.48-0.947,0.48-1.536
		c0-0.98-0.315-1.721-0.945-2.224c-0.631-0.503-1.555-0.754-2.773-0.754h-3.359v11.375H293.688z M293.806,25.206
		c0.812,0,1.449,0.204,1.91,0.613c0.461,0.408,0.691,0.963,0.691,1.665c0,0.743-0.241,1.324-0.723,1.743
		c-0.482,0.418-1.135,0.628-1.957,0.628h-2.883v-4.649H293.806z M290.845,20.104h2.398c0.922,0,1.61,0.173,2.066,0.521
		c0.455,0.347,0.684,0.885,0.684,1.616c0,0.694-0.221,1.222-0.66,1.584c-0.44,0.363-1.062,0.552-1.863,0.567h-2.625V20.104z"/>
	<path fill="#FFFFFF" d="M306.849,30.667h1l-4.305-11.375h-0.914l-4.305,11.375h1.008l1.172-3.195h5.164L306.849,30.667z
		 M303.083,20.463l2.281,6.196h-4.562L303.083,20.463z"/>
	<path fill="#FFFFFF" d="M316.36,30.667h1.023v-0.103l-2.844-4.843c0.719-0.213,1.291-0.599,1.719-1.155
		c0.427-0.557,0.641-1.199,0.641-1.928c0-1.056-0.342-1.877-1.023-2.465c-0.683-0.588-1.631-0.882-2.844-0.882h-3.695v11.375h0.969
		v-4.742h3.305L316.36,30.667z M310.306,20.104h2.711c0.922,0,1.638,0.222,2.148,0.665c0.51,0.443,0.766,1.066,0.766,1.87
		c0,0.73-0.245,1.325-0.734,1.784c-0.49,0.459-1.139,0.689-1.945,0.689h-2.945V20.104z"/>
	<path fill="#FFFFFF" d="M326.356,30.667h1.023v-0.103l-2.844-4.843c0.719-0.213,1.291-0.599,1.719-1.155
		c0.427-0.557,0.641-1.199,0.641-1.928c0-1.056-0.342-1.877-1.023-2.465c-0.683-0.588-1.631-0.882-2.844-0.882h-3.695v11.375h0.969
		v-4.742h3.305L326.356,30.667z M320.302,20.104h2.711c0.922,0,1.639,0.222,2.148,0.665s0.766,1.066,0.766,1.87
		c0,0.73-0.245,1.325-0.734,1.784c-0.49,0.459-1.139,0.689-1.945,0.689h-2.945V20.104z"/>
	<path fill="#FFFFFF" d="M330.524,19.292h-0.961v11.375h0.961V19.292z"/>
	<path fill="#FFFFFF" d="M340.911,30.667h1l-4.305-11.375h-0.914l-4.305,11.375h1.008l1.172-3.195h5.164L340.911,30.667z
		 M337.146,20.463l2.281,6.196h-4.562L337.146,20.463z"/>
	<path fill="#FFFFFF" d="M346.532,30.667c0.969,0,1.827-0.214,2.574-0.642c0.748-0.426,1.327-1.033,1.738-1.82
		c0.412-0.785,0.617-1.688,0.617-2.702v-1.047c0-1.01-0.207-1.911-0.621-2.703c-0.414-0.792-0.99-1.4-1.73-1.824
		c-0.739-0.425-1.575-0.637-2.508-0.637h-3.18v11.375H346.532z M346.618,20.104c1.167,0.005,2.107,0.401,2.82,1.188
		c0.714,0.788,1.07,1.835,1.07,3.143v1.001c0,1.355-0.361,2.431-1.086,3.226c-0.724,0.795-1.685,1.192-2.883,1.192h-2.156v-9.75
		H346.618z"/>
	<path fill="#FFFFFF" d="M360.896,30.667h1l-4.305-11.375h-0.914l-4.305,11.375h1.008l1.172-3.195h5.164L360.896,30.667z
		 M357.13,20.463l2.281,6.196h-4.562L357.13,20.463z"/>
	<path fill="#FFFFFF" d="M369.041,29.425c-0.536,0.391-1.247,0.585-2.133,0.585c-0.995,0-1.792-0.23-2.391-0.694
		s-0.898-1.097-0.898-1.898h-0.961c0,0.667,0.173,1.258,0.52,1.773c0.347,0.515,0.854,0.917,1.523,1.202
		c0.669,0.287,1.405,0.43,2.207,0.43c1.172,0,2.116-0.27,2.832-0.812c0.716-0.541,1.074-1.26,1.074-2.155
		c0-0.567-0.133-1.06-0.398-1.477s-0.661-0.775-1.188-1.074c-0.526-0.3-1.3-0.589-2.32-0.868s-1.763-0.601-2.227-0.966
		s-0.695-0.837-0.695-1.417c0-0.626,0.258-1.133,0.773-1.522c0.516-0.388,1.208-0.583,2.078-0.583c0.896,0,1.609,0.237,2.141,0.709
		s0.797,1.098,0.797,1.877h0.969c0-0.641-0.164-1.222-0.492-1.742c-0.328-0.521-0.79-0.927-1.387-1.219
		c-0.597-0.292-1.272-0.438-2.027-0.438c-1.114,0-2.03,0.272-2.746,0.816c-0.716,0.544-1.074,1.251-1.074,2.121
		c0,0.896,0.386,1.62,1.156,2.172c0.542,0.39,1.401,0.751,2.578,1.082c1.177,0.331,1.987,0.679,2.43,1.047
		c0.442,0.367,0.664,0.866,0.664,1.496C369.846,28.516,369.577,29.034,369.041,29.425z"/>
	<path fill="#FFFFFF" d="M159.663,48.667h1.023v-0.103l-2.844-4.843c0.719-0.214,1.292-0.599,1.719-1.155
		c0.427-0.557,0.641-1.199,0.641-1.928c0-1.055-0.341-1.877-1.023-2.465c-0.683-0.588-1.63-0.882-2.844-0.882h-3.695v11.375h0.969
		v-4.742h3.305L159.663,48.667z M153.608,38.104h2.711c0.922,0,1.638,0.222,2.148,0.665c0.51,0.443,0.766,1.066,0.766,1.869
		c0,0.73-0.245,1.326-0.734,1.785c-0.49,0.459-1.138,0.688-1.945,0.688h-2.945V38.104z"/>
	<path fill="#FFFFFF" d="M169.676,42.4h-5.32v-4.296h6.078v-0.812h-7.039v11.375h7.078v-0.812h-6.117v-4.642h5.32V42.4z"/>
	<path fill="#FFFFFF" d="M178.705,47.425c-0.537,0.391-1.248,0.585-2.133,0.585c-0.995,0-1.792-0.23-2.391-0.694
		c-0.599-0.464-0.898-1.097-0.898-1.898h-0.961c0,0.667,0.173,1.258,0.52,1.773c0.346,0.515,0.854,0.917,1.523,1.202
		c0.669,0.287,1.405,0.43,2.207,0.43c1.172,0,2.116-0.27,2.832-0.812c0.716-0.541,1.074-1.26,1.074-2.155
		c0-0.567-0.133-1.06-0.398-1.477s-0.662-0.774-1.188-1.074c-0.526-0.3-1.3-0.589-2.32-0.868c-1.021-0.279-1.763-0.602-2.227-0.967
		c-0.464-0.365-0.695-0.837-0.695-1.416c0-0.626,0.258-1.133,0.773-1.521s1.208-0.584,2.078-0.584c0.896,0,1.609,0.237,2.141,0.71
		s0.797,1.099,0.797,1.877h0.969c0-0.642-0.164-1.222-0.492-1.742s-0.791-0.927-1.387-1.22c-0.597-0.291-1.272-0.438-2.027-0.438
		c-1.115,0-2.03,0.273-2.746,0.816c-0.716,0.545-1.074,1.252-1.074,2.121c0,0.896,0.385,1.621,1.156,2.173
		c0.542,0.39,1.401,0.751,2.578,1.081c1.177,0.332,1.987,0.68,2.43,1.048c0.442,0.367,0.664,0.866,0.664,1.496
		C179.51,46.516,179.241,47.034,178.705,47.425z"/>
	<path fill="#FFFFFF" d="M184.297,37.292h-0.961v11.375h0.961V37.292z"/>
	<path fill="#FFFFFF" d="M191.067,48.667c0.969,0,1.828-0.214,2.574-0.642c0.748-0.426,1.327-1.033,1.738-1.82
		c0.412-0.785,0.617-1.688,0.617-2.702v-1.048c0-1.01-0.207-1.91-0.621-2.702s-0.99-1.399-1.73-1.824
		c-0.739-0.425-1.574-0.637-2.508-0.637h-3.18v11.375H191.067z M191.153,38.104c1.168,0.005,2.107,0.401,2.82,1.188
		c0.714,0.787,1.07,1.834,1.07,3.143v1.001c0,1.355-0.361,2.431-1.086,3.226c-0.724,0.795-1.685,1.192-2.883,1.192h-2.156v-9.75
		H191.153z"/>
	<path fill="#FFFFFF" d="M205.292,42.4h-5.32v-4.296h6.078v-0.812h-7.039v11.375h7.078v-0.812h-6.117v-4.642h5.32V42.4z"/>
	<path fill="#FFFFFF" d="M217.157,37.292h-0.953v9.742l-6.547-9.742h-0.969v11.375h0.969v-9.734l6.539,9.734h0.961V37.292z"/>
	<path fill="#FFFFFF" d="M227.71,45.12c-0.119,0.964-0.436,1.687-0.945,2.168s-1.268,0.722-2.273,0.722
		c-1.016,0-1.821-0.391-2.418-1.172c-0.596-0.782-0.895-1.83-0.895-3.144v-1.392c0-1.36,0.307-2.426,0.918-3.197
		s1.434-1.158,2.465-1.158c1.859,0,2.908,0.967,3.148,2.899h0.969c-0.115-1.161-0.525-2.071-1.23-2.727
		c-0.705-0.657-1.668-0.985-2.887-0.985c-0.865,0-1.629,0.213-2.293,0.637c-0.664,0.426-1.174,1.028-1.527,1.809
		c-0.354,0.782-0.531,1.678-0.531,2.688v1.478c0.006,0.995,0.186,1.879,0.539,2.651c0.354,0.774,0.855,1.371,1.504,1.794
		c0.648,0.422,1.395,0.632,2.238,0.632c1.209,0,2.176-0.316,2.902-0.952s1.155-1.552,1.285-2.75H227.71z"/>
	<path fill="#FFFFFF" d="M232.763,37.292h-0.961v11.375h0.961V37.292z"/>
	<path fill="#FFFFFF" d="M243.886,48.667h1l-4.305-11.375h-0.914l-4.305,11.375h1.008l1.172-3.195h5.164L243.886,48.667z
		 M240.12,38.463l2.281,6.196h-4.562L240.12,38.463z"/>
	<path fill="#FFFFFF" d="M248.103,37.292h-0.969v11.375h6.586v-0.812h-5.617V37.292z"/>
	<path fill="#FFFFFF" d="M262.421,42.4h-5.32v-4.296h6.078v-0.812h-7.039v11.375h7.078v-0.812h-6.117v-4.642h5.32V42.4z"/>
	<path fill="#FFFFFF" d="M271.449,47.425c-0.536,0.391-1.247,0.585-2.133,0.585c-0.995,0-1.792-0.23-2.391-0.694
		s-0.898-1.097-0.898-1.898h-0.961c0,0.667,0.173,1.258,0.52,1.773c0.347,0.515,0.854,0.917,1.523,1.202
		c0.669,0.287,1.405,0.43,2.207,0.43c1.172,0,2.116-0.27,2.832-0.812c0.716-0.541,1.074-1.26,1.074-2.155
		c0-0.567-0.133-1.06-0.398-1.477s-0.661-0.774-1.188-1.074s-1.3-0.589-2.32-0.868s-1.763-0.602-2.227-0.967
		s-0.695-0.837-0.695-1.416c0-0.626,0.258-1.133,0.773-1.521s1.208-0.584,2.078-0.584c0.896,0,1.609,0.237,2.141,0.71
		s0.797,1.099,0.797,1.877h0.969c0-0.642-0.164-1.222-0.492-1.742s-0.79-0.927-1.387-1.22c-0.597-0.291-1.272-0.438-2.027-0.438
		c-1.114,0-2.03,0.273-2.746,0.816c-0.716,0.545-1.074,1.252-1.074,2.121c0,0.896,0.386,1.621,1.156,2.173
		c0.542,0.39,1.401,0.751,2.578,1.081c1.177,0.332,1.987,0.68,2.43,1.048c0.442,0.367,0.664,0.866,0.664,1.496
		C272.254,46.516,271.985,47.034,271.449,47.425z"/>
	<path fill="#FFFFFF" d="M288.742,42.237c-0.016-1.016-0.206-1.909-0.57-2.68s-0.882-1.367-1.551-1.79
		c-0.669-0.421-1.441-0.633-2.316-0.633s-1.648,0.216-2.32,0.645c-0.672,0.43-1.191,1.045-1.559,1.845s-0.551,1.718-0.551,2.754
		v1.172c0,1.614,0.409,2.897,1.227,3.847c0.817,0.951,1.891,1.426,3.219,1.426c0.88,0,1.656-0.213,2.328-0.64
		s1.188-1.036,1.551-1.828s0.543-1.712,0.543-2.758V42.237z M287.781,43.565c0,1.39-0.305,2.476-0.914,3.253
		c-0.609,0.779-1.458,1.169-2.547,1.169c-1.073,0-1.922-0.396-2.547-1.184c-0.625-0.79-0.938-1.858-0.938-3.207v-1.188
		c0-1.396,0.313-2.483,0.941-3.263c0.628-0.777,1.47-1.167,2.527-1.167c1.078,0,1.927,0.388,2.547,1.163
		c0.62,0.777,0.93,1.85,0.93,3.22V43.565z"/>
	<path fill="#FFFFFF" d="M295.544,48.667c1.156,0,2.059-0.282,2.707-0.848c0.648-0.564,0.973-1.35,0.973-2.354
		c0-0.66-0.201-1.244-0.605-1.748c-0.402-0.506-0.936-0.831-1.598-0.977c0.559-0.188,0.996-0.499,1.316-0.934
		c0.32-0.436,0.48-0.947,0.48-1.537c0-0.979-0.314-1.721-0.945-2.224c-0.629-0.503-1.555-0.754-2.773-0.754h-3.359v11.375H295.544z
		 M295.661,43.205c0.812,0,1.449,0.205,1.91,0.613s0.691,0.963,0.691,1.665c0,0.743-0.24,1.324-0.723,1.743
		c-0.48,0.418-1.133,0.628-1.957,0.628H292.7v-4.649H295.661z M292.7,38.104h2.398c0.922,0,1.611,0.173,2.066,0.521
		c0.457,0.347,0.684,0.885,0.684,1.616c0,0.694-0.219,1.222-0.66,1.585c-0.439,0.362-1.061,0.552-1.863,0.566H292.7V38.104z"/>
	<path fill="#FFFFFF" d="M307.753,47.425c-0.536,0.391-1.247,0.585-2.133,0.585c-0.994,0-1.791-0.23-2.391-0.694
		c-0.599-0.464-0.898-1.097-0.898-1.898h-0.961c0,0.667,0.174,1.258,0.52,1.773c0.347,0.515,0.854,0.917,1.523,1.202
		c0.67,0.287,1.405,0.43,2.207,0.43c1.172,0,2.116-0.27,2.832-0.812c0.717-0.541,1.074-1.26,1.074-2.155
		c0-0.567-0.133-1.06-0.398-1.477s-0.661-0.774-1.188-1.074c-0.525-0.3-1.299-0.589-2.32-0.868
		c-1.021-0.279-1.763-0.602-2.227-0.967c-0.463-0.365-0.695-0.837-0.695-1.416c0-0.626,0.258-1.133,0.773-1.521
		s1.209-0.584,2.078-0.584c0.896,0,1.609,0.237,2.141,0.71s0.797,1.099,0.797,1.877h0.969c0-0.642-0.164-1.222-0.492-1.742
		s-0.79-0.927-1.387-1.22c-0.596-0.291-1.271-0.438-2.027-0.438c-1.114,0-2.029,0.273-2.746,0.816
		c-0.716,0.545-1.074,1.252-1.074,2.121c0,0.896,0.386,1.621,1.156,2.173c0.542,0.39,1.401,0.751,2.578,1.081
		c1.178,0.332,1.987,0.68,2.43,1.048c0.443,0.367,0.664,0.866,0.664,1.496C308.558,46.516,308.29,47.034,307.753,47.425z"/>
	<path fill="#FFFFFF" d="M320.579,42.237c-0.016-1.016-0.205-1.909-0.57-2.68c-0.364-0.771-0.881-1.367-1.551-1.79
		c-0.669-0.421-1.441-0.633-2.316-0.633s-1.648,0.216-2.32,0.645c-0.672,0.43-1.191,1.045-1.559,1.845s-0.551,1.718-0.551,2.754
		v1.172c0,1.614,0.409,2.897,1.227,3.847c0.818,0.951,1.891,1.426,3.219,1.426c0.881,0,1.656-0.213,2.328-0.64
		s1.189-1.036,1.551-1.828c0.362-0.792,0.543-1.712,0.543-2.758V42.237z M319.618,43.565c0,1.39-0.305,2.476-0.914,3.253
		c-0.609,0.779-1.458,1.169-2.547,1.169c-1.072,0-1.922-0.396-2.547-1.184c-0.625-0.79-0.938-1.858-0.938-3.207v-1.188
		c0-1.396,0.314-2.483,0.941-3.263c0.628-0.777,1.471-1.167,2.527-1.167c1.078,0,1.928,0.388,2.547,1.163
		c0.62,0.777,0.93,1.85,0.93,3.22V43.565z"/>
	<path fill="#FFFFFF" d="M324.546,37.292h-0.969v11.375h6.586v-0.812h-5.617V37.292z"/>
	<path fill="#FFFFFF" d="M338.864,42.4h-5.32v-4.296h6.078v-0.812h-7.039v11.375h7.078v-0.812h-6.117v-4.642h5.32V42.4z"/>
	<path fill="#FFFFFF" d="M350.136,37.292h-8.75v0.812h3.891v10.562h0.961V38.104h3.898V37.292z"/>
	<path fill="#FFFFFF" d="M359.251,48.667h1l-4.305-11.375h-0.914l-4.305,11.375h1.008l1.172-3.195h5.164L359.251,48.667z
		 M355.485,38.463l2.281,6.196h-4.562L355.485,38.463z"/>
	<path fill="#FFFFFF" d="M368.132,47.425c-0.537,0.391-1.248,0.585-2.133,0.585c-0.996,0-1.793-0.23-2.391-0.694
		c-0.6-0.464-0.898-1.097-0.898-1.898h-0.961c0,0.667,0.172,1.258,0.52,1.773c0.346,0.515,0.854,0.917,1.523,1.202
		c0.669,0.287,1.404,0.43,2.207,0.43c1.172,0,2.115-0.27,2.832-0.812c0.715-0.541,1.074-1.26,1.074-2.155
		c0-0.567-0.133-1.06-0.398-1.477s-0.662-0.774-1.188-1.074c-0.527-0.3-1.301-0.589-2.32-0.868
		c-1.021-0.279-1.764-0.602-2.227-0.967c-0.465-0.365-0.695-0.837-0.695-1.416c0-0.626,0.258-1.133,0.773-1.521
		s1.207-0.584,2.078-0.584c0.895,0,1.609,0.237,2.141,0.71s0.797,1.099,0.797,1.877h0.969c0-0.642-0.164-1.222-0.492-1.742
		s-0.791-0.927-1.387-1.22c-0.598-0.291-1.273-0.438-2.027-0.438c-1.115,0-2.03,0.273-2.746,0.816
		c-0.717,0.545-1.074,1.252-1.074,2.121c0,0.896,0.385,1.621,1.156,2.173c0.541,0.39,1.4,0.751,2.578,1.081
		c1.176,0.332,1.986,0.68,2.43,1.048c0.442,0.367,0.664,0.866,0.664,1.496C368.937,46.516,368.667,47.034,368.132,47.425z"/>
	<path fill-rule="evenodd" clip-rule="evenodd" fill="#D29B31" d="M299.392,2.75h72v8h-72V2.75z"/>
</g>
</svg>
