<?xml version="1.0" encoding="utf-8"?>
<!-- Generator: Adobe Illustrator 16.0.0, SVG Export Plug-In . SVG Version: 6.00 Build 0)  -->
<!DOCTYPE svg PUBLIC "-//W3C//DTD SVG 1.1//EN" "http://www.w3.org/Graphics/SVG/1.1/DTD/svg11.dtd">
<svg version="1.1" id="Layer_2" xmlns="http://www.w3.org/2000/svg" xmlns:xlink="http://www.w3.org/1999/xlink" x="0px" y="0px"
	 width="72px" height="72px" viewBox="0 0 72 72" enable-background="new 0 0 72 72" xml:space="preserve">
<g>
	<g opacity="0.8">
		<path fill="#27272E" d="M13.749,16.335L15,14.666V8h-3l-3.293,3.293L13.749,16.335z"/>
		<path fill="#27272E" d="M18,16.721l-1.633-0.544L11.25,23H21v-3h-3V16.721z"/>
		<path fill="#27272E" d="M12.537,17.951L8,13.414V18l2.25,3L12.537,17.951z"/>
		<path fill="#27272E" d="M17,14.279l1.947,0.648L26,11.794V10l-2-2h-7V14.279z"/>
		<path fill="#27272E" d="M20,16.65V18h8v-4.905L20,16.65z"/>
		<path fill="#27272E" d="M23,26.334L26.801,20H23V26.334z"/>
		<path fill="#27272E" d="M21,25h-8.75L16,28h5V25z"/>
	</g>
</g>
<g>
	<g opacity="0.8">
		<path fill="#27272E" d="M56,22c0,3.314-2.687,6-6,6s-6-2.686-6-6c0-3.313,2.687-6,6-6S56,18.687,56,22z"/>
		<path fill="#27272E" d="M52,11c0,1.657-1.343,3-3,3s-3-1.343-3-3c0-1.656,1.343-3,3-3S52,9.344,52,11z"/>
		<path fill="#27272E" d="M63,25c0,1.657-1.343,3-3,3s-3-1.343-3-3c0-1.656,1.343-3,3-3S63,23.344,63,25z"/>
		<path fill="#27272E" d="M63,12.5c0,2.485-2.015,4.5-4.5,4.5S54,14.985,54,12.5S56.015,8,58.5,8S63,10.015,63,12.5z"/>
		<path fill="#27272E" d="M61,19.5c0,0.829,0.672,1.5,1.5,1.5s1.5-0.671,1.5-1.5c0-0.828-0.672-1.5-1.5-1.5S61,18.672,61,19.5z"/>
	</g>
</g>
<g opacity="0.8">
	<path fill="#D29B31" d="M13.749,52.335L15,50.666V44h-3l-3.293,3.293L13.749,52.335z"/>
	<path fill="#D29B31" d="M18,52.721l-1.633-0.544L11.25,59H21v-3h-3V52.721z"/>
	<path fill="#D29B31" d="M12.537,53.951L8,49.414V54l2.25,3L12.537,53.951z"/>
	<path fill="#D29B31" d="M17,50.279l1.947,0.648L26,47.794V46l-2-2h-7V50.279z"/>
	<path fill="#D29B31" d="M20,52.65V54h8v-4.905L20,52.65z"/>
	<path fill="#D29B31" d="M23,62.334L26.801,56H23V62.334z"/>
	<path fill="#D29B31" d="M21,61h-8.75L16,64h5V61z"/>
</g>
<g opacity="0.8">
	<path fill="#D29B31" d="M56,58c0,3.314-2.687,6-6,6s-6-2.686-6-6c0-3.313,2.687-6,6-6S56,54.687,56,58z"/>
	<path fill="#D29B31" d="M52,47c0,1.657-1.343,3-3,3s-3-1.343-3-3c0-1.656,1.343-3,3-3S52,45.344,52,47z"/>
	<path fill="#D29B31" d="M63,61c0,1.657-1.343,3-3,3s-3-1.343-3-3c0-1.656,1.343-3,3-3S63,59.344,63,61z"/>
	<path fill="#D29B31" d="M63,48.5c0,2.485-2.015,4.5-4.5,4.5S54,50.985,54,48.5s2.015-4.5,4.5-4.5S63,46.015,63,48.5z"/>
	<path fill="#D29B31" d="M61,55.5c0,0.829,0.672,1.5,1.5,1.5s1.5-0.671,1.5-1.5c0-0.828-0.672-1.5-1.5-1.5S61,54.672,61,55.5z"/>
</g>
</svg>
